<svg xmlns="http://www.w3.org/2000/svg" xmlns:xlink="http://www.w3.org/1999/xlink" viewBox="0 0 430.34 466.33"><defs><style>.cls-1{fill:url(#linear-gradient);}.cls-2{fill:url(#linear-gradient-2);}.cls-3{fill:url(#linear-gradient-3);}.cls-4{isolation:isolate;}.cls-5{fill:#72594b;}.cls-13,.cls-21,.cls-6{opacity:0.7;}.cls-6{fill:url(#linear-gradient-4);}.cls-10,.cls-11,.cls-12,.cls-24,.cls-29,.cls-48,.cls-49,.cls-7,.cls-8,.cls-9{fill:none;}.cls-10,.cls-11,.cls-12,.cls-23,.cls-24,.cls-28,.cls-29,.cls-48,.cls-49,.cls-7,.cls-8,.cls-9{stroke-miterlimit:10;}.cls-10,.cls-11,.cls-12,.cls-7,.cls-8,.cls-9{stroke-width:3.26px;opacity:0.6;}.cls-7{stroke:url(#linear-gradient-5);}.cls-8{stroke:url(#linear-gradient-6);}.cls-9{stroke:url(#linear-gradient-7);}.cls-10{stroke:url(#linear-gradient-8);}.cls-11{stroke:url(#linear-gradient-9);}.cls-12{stroke:url(#linear-gradient-10);}.cls-13{fill:url(#linear-gradient-11);}.cls-14{fill:url(#linear-gradient-12);}.cls-15{fill:#fff;}.cls-16{fill:#99c1ff;}.cls-17{fill:#cce0ff;}.cls-18{fill:url(#linear-gradient-13);}.cls-19{fill:#fffae5;}.cls-20{fill:#ffe380;}.cls-21{fill:url(#linear-gradient-14);}.cls-22{clip-path:url(#clip-path);}.cls-23{fill:#b3bac5;stroke:#ffc400;}.cls-23,.cls-24{stroke-width:3.77px;}.cls-24,.cls-28,.cls-29{stroke:#b2d4ff;}.cls-25,.cls-30,.cls-35{mix-blend-mode:multiply;}.cls-25{fill:url(#linear-gradient-16);}.cls-26{fill:#ffc400;}.cls-27{fill:url(#linear-gradient-17);}.cls-28{fill:#deebff;}.cls-28,.cls-29{stroke-width:3.11px;}.cls-30{fill:url(#linear-gradient-18);}.cls-31{clip-path:url(#clip-path-2);}.cls-32{fill:url(#linear-gradient-20);}.cls-33{clip-path:url(#clip-path-3);}.cls-34{fill:url(#linear-gradient-22);}.cls-35{fill:url(#linear-gradient-23);}.cls-36{fill:#fafbfc;}.cls-37{fill:url(#linear-gradient-24);}.cls-38{fill:url(#linear-gradient-25);}.cls-39{fill:#253858;}.cls-40{fill:#42526e;}.cls-41{fill:#5e6c84;}.cls-42{fill:#e4b69d;}.cls-43{fill:url(#linear-gradient-26);}.cls-44{fill:url(#linear-gradient-27);}.cls-45{fill:url(#linear-gradient-28);}.cls-46{fill:url(#linear-gradient-29);}.cls-47,.cls-58{opacity:0.2;}.cls-47{fill:url(#linear-gradient-30);}.cls-48{stroke:#2684ff;}.cls-48,.cls-49{stroke-linecap:round;stroke-width:3.57px;}.cls-49{stroke:#4c9aff;}.cls-50{fill:#b2d4ff;}.cls-51{fill:#4c9aff;}.cls-52{fill:#00c7e5;}.cls-53{fill:#0065ff;}.cls-54{fill:#344563;}.cls-55{fill:#00b8d9;}.cls-56{fill:#79e2f2;}.cls-57{fill:#cea28b;}.cls-58{fill:url(#linear-gradient-31);}.cls-59{fill:url(#linear-gradient-32);}.cls-60{fill:#ffab00;}.cls-61{fill:url(#linear-gradient-33);}.cls-62{fill:url(#linear-gradient-34);}.cls-63{fill:url(#linear-gradient-35);}</style><linearGradient id="linear-gradient" x1="107.51" y1="381.41" x2="365.7" y2="123.22" gradientUnits="userSpaceOnUse"><stop offset="0" stop-color="#deebff"/><stop offset="0.64" stop-color="#ebf1fa"/><stop offset="1" stop-color="#f4f5f7"/></linearGradient><linearGradient id="linear-gradient-2" x1="153.2" y1="-112.07" x2="153.2" y2="-149.45" gradientTransform="matrix(1, -0.06, 0, 1, -6.61, 198.45)" gradientUnits="userSpaceOnUse"><stop offset="0.26" stop-color="#ff991f"/><stop offset="0.66" stop-color="#ffc400"/><stop offset="0.71" stop-color="#ffc607"/><stop offset="0.77" stop-color="#ffca1a"/><stop offset="0.86" stop-color="#ffd239"/><stop offset="0.95" stop-color="#ffdc64"/><stop offset="1" stop-color="#ffe380"/></linearGradient><linearGradient id="linear-gradient-3" x1="391.11" y1="598.09" x2="391.11" y2="560.71" gradientTransform="matrix(1.03, 0.1, 0, 1, -105.69, -376.08)" xlink:href="#linear-gradient-2"/><linearGradient id="linear-gradient-4" x1="147.17" y1="370.74" x2="421.8" y2="96.12" gradientUnits="userSpaceOnUse"><stop offset="0" stop-color="#4c9aff"/><stop offset="0.17" stop-color="#4d9bff" stop-opacity="0.99"/><stop offset="0.3" stop-color="#519dff" stop-opacity="0.95"/><stop offset="0.42" stop-color="#58a1ff" stop-opacity="0.88"/><stop offset="0.53" stop-color="#61a6ff" stop-opacity="0.79"/><stop offset="0.63" stop-color="#6dadff" stop-opacity="0.67"/><stop offset="0.74" stop-color="#7cb6ff" stop-opacity="0.53"/><stop offset="0.84" stop-color="#8ec0ff" stop-opacity="0.35"/><stop offset="0.93" stop-color="#a2cbff" stop-opacity="0.16"/><stop offset="1" stop-color="#b2d4ff" stop-opacity="0"/></linearGradient><linearGradient id="linear-gradient-5" x1="354.42" y1="132.78" x2="430.34" y2="132.78" gradientUnits="userSpaceOnUse"><stop offset="0" stop-color="#4c9aff"/><stop offset="0.17" stop-color="#4e9bff" stop-opacity="0.99"/><stop offset="0.3" stop-color="#549efe" stop-opacity="0.95"/><stop offset="0.42" stop-color="#5da2fc" stop-opacity="0.88"/><stop offset="0.53" stop-color="#6ba9fa" stop-opacity="0.79"/><stop offset="0.63" stop-color="#7cb1f6" stop-opacity="0.67"/><stop offset="0.74" stop-color="#92bcf3" stop-opacity="0.53"/><stop offset="0.84" stop-color="#abc8ee" stop-opacity="0.35"/><stop offset="0.93" stop-color="#c8d6e9" stop-opacity="0.16"/><stop offset="1" stop-color="#dfe1e5" stop-opacity="0"/></linearGradient><linearGradient id="linear-gradient-6" x1="354.42" y1="141.46" x2="430.34" y2="141.46" xlink:href="#linear-gradient-5"/><linearGradient id="linear-gradient-7" x1="354.42" y1="150.13" x2="412.09" y2="150.13" xlink:href="#linear-gradient-5"/><linearGradient id="linear-gradient-8" x1="163.25" y1="1.63" x2="239.17" y2="1.63" xlink:href="#linear-gradient-5"/><linearGradient id="linear-gradient-9" x1="163.25" y1="10.3" x2="239.17" y2="10.3" xlink:href="#linear-gradient-5"/><linearGradient id="linear-gradient-10" x1="163.25" y1="18.98" x2="220.92" y2="18.98" xlink:href="#linear-gradient-5"/><linearGradient id="linear-gradient-11" x1="159.06" y1="364.23" x2="424.68" y2="98.61" gradientUnits="userSpaceOnUse"><stop offset="0" stop-color="#2684ff"/><stop offset="0.17" stop-color="#2684ff" stop-opacity="0.99"/><stop offset="0.3" stop-color="#2885ff" stop-opacity="0.95"/><stop offset="0.42" stop-color="#2a87ff" stop-opacity="0.88"/><stop offset="0.53" stop-color="#2e89ff" stop-opacity="0.79"/><stop offset="0.63" stop-color="#328bff" stop-opacity="0.67"/><stop offset="0.74" stop-color="#388eff" stop-opacity="0.53"/><stop offset="0.84" stop-color="#3f92ff" stop-opacity="0.35"/><stop offset="0.93" stop-color="#4697ff" stop-opacity="0.16"/><stop offset="1" stop-color="#4c9aff" stop-opacity="0"/></linearGradient><linearGradient id="linear-gradient-12" x1="935.98" y1="218.9" x2="935.98" y2="129.04" gradientTransform="translate(-565.9 180.74) rotate(-4.97)" gradientUnits="userSpaceOnUse"><stop offset="0" stop-color="#99c1ff"/><stop offset="0.79" stop-color="#66a3ff"/></linearGradient><linearGradient id="linear-gradient-13" x1="-1044.82" y1="-2802.8" x2="-968.49" y2="-2810.7" gradientTransform="matrix(0.78, -0.63, 0.63, 0.78, 2647.15, 1667.16)" gradientUnits="userSpaceOnUse"><stop offset="0.21" stop-color="#ffc400"/><stop offset="1" stop-color="#ffe380"/></linearGradient><linearGradient id="linear-gradient-14" x1="123.64" y1="376.21" x2="413.22" y2="86.63" xlink:href="#linear-gradient-5"/><clipPath id="clip-path"><polygon id="_Clipping_Path_" data-name="&lt;Clipping Path&gt;" class="cls-1" points="273.57 31.1 122.81 66.14 122.81 396.7 342.12 446.78 342.12 100.93 273.57 31.1"/></clipPath><linearGradient id="linear-gradient-16" x1="45.22" y1="253.58" x2="203.95" y2="253.58" gradientUnits="userSpaceOnUse"><stop offset="0.33" stop-color="#c1c7d0" stop-opacity="0"/><stop offset="0.4" stop-color="#c1c7d0" stop-opacity="0.05"/><stop offset="0.51" stop-color="#c1c7d0" stop-opacity="0.19"/><stop offset="0.67" stop-color="#c1c7d0" stop-opacity="0.41"/><stop offset="0.85" stop-color="#c1c7d0" stop-opacity="0.72"/><stop offset="1" stop-color="#c1c7d0"/></linearGradient><linearGradient id="linear-gradient-17" x1="273.57" y1="66.01" x2="342.12" y2="66.01" gradientUnits="userSpaceOnUse"><stop offset="0" stop-color="#f4f5f7"/><stop offset="0.51" stop-color="#ecedf0"/><stop offset="1" stop-color="#dfe1e5"/></linearGradient><linearGradient id="linear-gradient-18" x1="273.57" y1="82.62" x2="342.12" y2="82.62" xlink:href="#linear-gradient-17"/><clipPath id="clip-path-2"><path id="_Clipping_Path_2" data-name="&lt;Clipping Path&gt;" class="cls-2" d="M156.45,40l-19.14,4.27c-2.34.52-4.23,3.26-4.23,6.11V68.86c0,2.85,1.9,4.74,4.23,4.22L142,72l3.55,5.29c.63.94,1.95.65,2.58-.58l3.55-6.87,4.73-1.05c2.34-.52,4.23-3.26,4.23-6.11V44.21C160.68,41.36,158.79,39.47,156.45,40Z"/></clipPath><linearGradient id="linear-gradient-20" x1="142.71" y1="-487.56" x2="168.21" y2="-513.06" gradientTransform="matrix(1, -0.22, 0, 1, -11.09, 591.43)" gradientUnits="userSpaceOnUse"><stop offset="0.32" stop-color="#ff991f"/><stop offset="0.77" stop-color="#ffc400"/></linearGradient><clipPath id="clip-path-3"><path id="_Clipping_Path_3" data-name="&lt;Clipping Path&gt;" class="cls-3" d="M306.4,224.32l-19.65,1.32c-2.4.16-4.35,2.6-4.35,5.45v18.49c0,2.85,1.95,5,4.35,4.87l4.85-.33,3.65,5.83a1.49,1.49,0,0,0,2.65-.18l3.65-6.32,4.85-.33c2.4-.16,4.35-2.6,4.35-5.45V229.19C310.75,226.34,308.8,224.16,306.4,224.32Z"/></clipPath><linearGradient id="linear-gradient-22" x1="380.14" y1="261.54" x2="405.64" y2="236.04" gradientTransform="matrix(1.03, -0.06, 0, 1, -110.29, 16.21)" xlink:href="#linear-gradient-20"/><linearGradient id="linear-gradient-23" x1="272.5" y1="413.65" x2="334.41" y2="351.73" gradientUnits="userSpaceOnUse"><stop offset="0" stop-color="#dfe1e5"/><stop offset="0.1" stop-color="#dfe1e5" stop-opacity="0.94"/><stop offset="0.28" stop-color="#dfe1e5" stop-opacity="0.8"/><stop offset="0.52" stop-color="#dfe1e5" stop-opacity="0.56"/><stop offset="0.81" stop-color="#dfe1e5" stop-opacity="0.24"/><stop offset="1" stop-color="#dfe1e5" stop-opacity="0"/></linearGradient><linearGradient id="linear-gradient-24" x1="135.73" y1="363.38" x2="248.92" y2="250.2" gradientUnits="userSpaceOnUse"><stop offset="0" stop-color="#00c7e5"/><stop offset="0.12" stop-color="#2fd3ec"/><stop offset="0.29" stop-color="#67e2f4"/><stop offset="0.43" stop-color="#90ecfa"/><stop offset="0.54" stop-color="#aaf3fe"/><stop offset="0.6" stop-color="#b3f5ff"/></linearGradient><linearGradient id="linear-gradient-25" x1="161.67" y1="393.75" x2="273.99" y2="281.43" xlink:href="#linear-gradient-24"/><linearGradient id="linear-gradient-26" x1="7293.23" y1="-8634.27" x2="7320.44" y2="-8634.27" gradientTransform="matrix(0.05, 0.92, 0.95, -0.05, 8103.8, -6747.56)" gradientUnits="userSpaceOnUse"><stop offset="0" stop-color="#ffe380"/><stop offset="1" stop-color="#ffab00"/></linearGradient><linearGradient id="linear-gradient-27" x1="1121.91" y1="522.53" x2="1233.26" y2="411.18" gradientTransform="matrix(1, 0, -0.2, 0.98, -822.54, -66.99)" xlink:href="#linear-gradient-24"/><linearGradient id="linear-gradient-28" x1="1114.9" y1="514.19" x2="1225.99" y2="403.09" gradientTransform="matrix(1, 0, -0.2, 0.98, -822.54, -66.99)" xlink:href="#linear-gradient-24"/><linearGradient id="linear-gradient-29" x1="1198.27" y1="424.67" x2="1210.57" y2="424.67" gradientTransform="matrix(1, 0, -0.2, 0.98, -822.54, -66.99)" gradientUnits="userSpaceOnUse"><stop offset="0" stop-color="#ff991f"/><stop offset="0.77" stop-color="#ffc400"/></linearGradient><linearGradient id="linear-gradient-30" y1="427.18" x2="162.86" y2="427.18" gradientUnits="userSpaceOnUse"><stop offset="0" stop-color="#091e42" stop-opacity="0"/><stop offset="0.06" stop-color="#091e42" stop-opacity="0.08"/><stop offset="0.45" stop-color="#091e42" stop-opacity="0.58"/><stop offset="0.78" stop-color="#091e42" stop-opacity="0.89"/><stop offset="1" stop-color="#091e42"/></linearGradient><linearGradient id="linear-gradient-31" x1="168.92" y1="460.87" x2="255.23" y2="460.87" xlink:href="#linear-gradient-30"/><linearGradient id="linear-gradient-32" x1="7504.11" y1="100.48" x2="7533.17" y2="100.48" gradientTransform="matrix(-1, 0.09, 0.09, 1, 7691.16, -358.07)" gradientUnits="userSpaceOnUse"><stop offset="0" stop-color="#ffc400"/><stop offset="0.45" stop-color="#ff991f"/></linearGradient><linearGradient id="linear-gradient-33" x1="8581.96" y1="-1350.47" x2="8589.47" y2="-1359.09" gradientTransform="matrix(-0.91, 0.4, 0.4, 0.91, 8626.39, -1817.2)" gradientUnits="userSpaceOnUse"><stop offset="0" stop-color="#ffc400"/><stop offset="0.35" stop-color="#ffb500"/><stop offset="0.7" stop-color="#ffab00"/></linearGradient><linearGradient id="linear-gradient-34" x1="8800.9" y1="-4386.22" x2="8771.5" y2="-4354.9" gradientTransform="matrix(-0.62, 0.68, 0.7, 0.64, 8764.19, -2787.61)" gradientUnits="userSpaceOnUse"><stop offset="0" stop-color="#ffab00"/><stop offset="0.73" stop-color="#ffe380"/></linearGradient><linearGradient id="linear-gradient-35" x1="263.12" y1="66.01" x2="342.12" y2="66.01" gradientUnits="userSpaceOnUse"><stop offset="0.03" stop-color="#fff"/><stop offset="0.4" stop-color="#f7f7f8"/><stop offset="0.96" stop-color="#e1e3e6"/><stop offset="1" stop-color="#dfe1e5"/></linearGradient></defs><title>Confluence Documents</title><g class="cls-4"><g id="Layer_2" data-name="Layer 2"><g id="Layer_1-2" data-name="Layer 1"><path class="cls-5" d="M262.86,402.78a3.83,3.83,0,0,0,3.15.7,4.21,4.21,0,0,0,1.7-1.29,9.24,9.24,0,0,0,1.56-2.18l2.9.64a.56.56,0,0,0,.59-.23.55.55,0,0,0-.25-.81l-2.71-1.09a.91.91,0,0,0-.65,0l-2.61.92-3.7,1.38Z"/><path class="cls-5" d="M271.37,400.09l1.37.64a.59.59,0,0,1,.32.67h0a.59.59,0,0,1-.68.44l-3.55-.66-2.08,1,.29-1.68,2.17-1Z"/><path class="cls-5" d="M272.72,402.85a.56.56,0,0,1-.68.31l-2.08-.94-3.12-.13.26-1.11h3.22l2.15,1.14A.56.56,0,0,1,272.72,402.85Z"/><path class="cls-5" d="M270.92,404.08a.41.41,0,0,1-.56,0L268.87,403l-1.73-.42.31-.88,2.26.52,1.21,1.34A.41.41,0,0,1,270.92,404.08Z"/><polygon class="cls-6" points="385.48 59.81 175.15 68.15 175.15 398.71 385.48 407.06 385.48 128.81 385.48 59.81"/><line class="cls-7" x1="354.42" y1="132.78" x2="430.34" y2="132.78"/><line class="cls-8" x1="354.42" y1="141.46" x2="430.34" y2="141.46"/><line class="cls-9" x1="354.42" y1="150.13" x2="412.09" y2="150.13"/><line class="cls-10" x1="163.25" y1="1.63" x2="239.17" y2="1.63"/><line class="cls-11" x1="163.25" y1="10.3" x2="239.17" y2="10.3"/><line class="cls-12" x1="163.25" y1="18.98" x2="220.92" y2="18.98"/><polygon class="cls-13" points="401.87 75.79 191.53 66.14 191.53 396.7 401.87 387.05 401.87 137.64 401.87 75.79"/><path class="cls-14" d="M405.45,315.94l-61.6-14.06a2.38,2.38,0,0,1-1.69-2.82l13.06-67.15a2.2,2.2,0,0,1,2.59-1.84l61.6,14.06a2.38,2.38,0,0,1,1.69,2.82L408,314.09A2.2,2.2,0,0,1,405.45,315.94Z"/><polygon class="cls-15" points="348.63 296.47 360.17 237.11 414.63 249.53 403.08 308.9 348.63 296.47"/><polygon class="cls-16" points="357.44 283.34 373.05 272.24 383.19 289.22 357.44 283.34"/><polygon class="cls-17" points="366.48 285.4 386.74 270.99 399.92 293.04 366.48 285.4"/><path class="cls-16" d="M379.52,258.1a4.53,4.53,0,0,1-5.33,3.79,4.9,4.9,0,0,1-3.47-5.8,4.53,4.53,0,0,1,5.33-3.79A4.9,4.9,0,0,1,379.52,258.1Z"/><path class="cls-18" d="M134.3,143,82.79,163a2.08,2.08,0,0,1-2.6-1.21l-23.5-55a1.93,1.93,0,0,1,1-2.61L109.17,84.1a2.08,2.08,0,0,1,2.6,1.21l23.5,55A1.93,1.93,0,0,1,134.3,143Z"/><polygon class="cls-19" points="83.6 156.74 62.82 108.09 108.36 90.36 129.13 139.02 83.6 156.74"/><rect class="cls-20" x="90.63" y="128.06" width="12.18" height="12.18"/><polygon class="cls-20" points="100.96 104.56 96.88 118.36 112.36 113.08 100.96 104.56"/><path class="cls-20" d="M87.05,115.63a6.18,6.18,0,0,1-3.33,8.29,6.68,6.68,0,0,1-8.46-3.69,6.18,6.18,0,0,1,3.33-8.29A6.68,6.68,0,0,1,87.05,115.63Z"/><polygon class="cls-21" points="363.44 36.84 144.13 66.14 144.13 396.7 363.44 426 363.44 114.17 363.44 36.84"/><polygon id="_Clipping_Path_4" data-name="&lt;Clipping Path&gt;" class="cls-1" points="273.57 31.1 122.81 66.14 122.81 396.7 342.12 446.78 342.12 100.93 273.57 31.1"/><g class="cls-22"><line class="cls-23" x1="230.17" y1="265.91" x2="319.74" y2="269.5"/><line class="cls-24" x1="138.44" y1="262.24" x2="230.17" y2="265.91"/><line class="cls-23" x1="138.44" y1="272.53" x2="319.74" y2="282.33"/><line class="cls-24" x1="206.49" y1="287.45" x2="319.74" y2="295.17"/><line class="cls-23" x1="138.44" y1="282.82" x2="206.49" y2="287.45"/><line class="cls-24" x1="138.44" y1="293.11" x2="274.48" y2="304.28"/><path class="cls-25" d="M203.94,275.54l-.4-3.09a1,1,0,0,0-.79-.88l-4.24-1,.22-.88-1.87-.46a14,14,0,0,1-7.92-5.3l-.24-.32a14,14,0,0,0-7.92-5.3l-49.54-12.21h0l-6.67-1.65h0l-17.14-4.23h0l-9.51-2.35h0L94.37,237h0l-6-1.47h0l-16.22-4h0l-9.49-2.34h0l-4.2-1a10.7,10.7,0,0,0-5.12,20.78l121.8,30a14,14,0,0,0,10.26-1.42,14,14,0,0,1,10.26-1.42l1.38.34.26-1.07,5.33,1.31A1,1,0,0,0,203.94,275.54Z"/></g><polygon class="cls-26" points="219.83 80.38 138.44 95.94 138.44 83.16 219.83 66.18 219.83 80.38"/><line class="cls-24" x1="137.05" y1="115.02" x2="245.8" y2="97.5"/><line class="cls-24" x1="137.05" y1="125.29" x2="245.8" y2="109.3"/><line class="cls-24" x1="137.05" y1="135.56" x2="220.29" y2="124.49"/><line class="cls-27" x1="342.12" y1="100.93" x2="273.57" y2="31.1"/><polygon class="cls-28" points="176.67 219.88 176.67 245.4 138.43 244.78 138.43 220.52 176.67 219.88"/><polygon class="cls-28" points="176.67 194.36 176.67 219.88 138.43 220.52 138.43 196.27 176.67 194.36"/><polygon class="cls-28" points="176.67 168.85 176.67 194.36 138.43 196.27 138.43 172.02 176.67 168.85"/><polygon class="cls-28" points="176.67 143.33 176.67 168.85 138.43 172.02 138.43 147.77 176.67 143.33"/><polygon class="cls-28" points="219.12 138.4 219.12 165.32 176.67 168.85 176.67 143.33 219.12 138.4"/><polygon class="cls-28" points="266.5 132.9 266.5 161.39 219.12 165.32 219.12 138.4 266.5 132.9"/><polygon class="cls-28" points="319.74 126.71 319.74 156.97 266.5 161.39 266.5 132.9 319.74 126.71"/><polygon class="cls-29" points="319.74 156.97 319.74 247.72 176.67 245.4 176.67 168.85 319.74 156.97"/><polyline class="cls-29" points="319.74 217.46 266.5 218.36 219.12 219.16 176.67 219.88"/><polyline class="cls-29" points="319.74 187.21 266.5 189.87 219.12 192.24 176.67 194.36"/><polyline class="cls-29" points="266.5 246.85 266.5 218.36 266.5 189.87 266.5 161.39"/><polyline class="cls-29" points="219.12 246.08 219.12 219.16 219.12 192.24 219.12 165.32"/><polygon class="cls-30" points="273.57 31.1 294.68 134.14 342.12 100.93 273.57 31.1"/><path id="_Clipping_Path_5" data-name="&lt;Clipping Path&gt;" class="cls-2" d="M156.45,40l-19.14,4.27c-2.34.52-4.23,3.26-4.23,6.11V68.86c0,2.85,1.9,4.74,4.23,4.22L142,72l3.55,5.29c.63.94,1.95.65,2.58-.58l3.55-6.87,4.73-1.05c2.34-.52,4.23-3.26,4.23-6.11V44.21C160.68,41.36,158.79,39.47,156.45,40Z"/><g class="cls-31"><path class="cls-32" d="M154.54,40.42,135.4,44.69c-2.34.52-4.23,3.26-4.23,6.11V69.29c0,2.85,1.9,4.74,4.23,4.22l4.73-1.05,3.55,5.29c.63.94,1.95.65,2.58-.58l3.55-6.87,4.73-1.05c2.34-.52,4.23-3.26,4.23-6.11V44.63C158.78,41.78,156.88,39.89,154.54,40.42Z"/></g><path id="_Clipping_Path_6" data-name="&lt;Clipping Path&gt;" class="cls-3" d="M306.4,224.32l-19.65,1.32c-2.4.16-4.35,2.6-4.35,5.45v18.49c0,2.85,1.95,5,4.35,4.87l4.85-.33,3.65,5.83a1.49,1.49,0,0,0,2.65-.18l3.65-6.32,4.85-.33c2.4-.16,4.35-2.6,4.35-5.45V229.19C310.75,226.34,308.8,224.16,306.4,224.32Z"/><g class="cls-33"><path class="cls-34" d="M304.45,224.45l-19.65,1.32c-2.4.16-4.35,2.6-4.35,5.45v18.49c0,2.85,1.95,5,4.35,4.87l4.85-.33,3.65,5.83a1.49,1.49,0,0,0,2.65-.18l3.65-6.32,4.85-.33c2.4-.16,4.35-2.6,4.35-5.45V229.32C308.79,226.47,306.85,224.29,304.45,224.45Z"/></g><polygon class="cls-35" points="273.85 415 330.44 425.93 330.44 347.76 273.85 342.08 273.85 415"/><path class="cls-36" d="M139.75,374.63l45.7,8.82a1.62,1.62,0,0,0,1.92-1.59V312.77a1.62,1.62,0,0,0-1.46-1.61l-45.7-4.58a1.62,1.62,0,0,0-1.78,1.61V373A1.62,1.62,0,0,0,139.75,374.63Zm2.87-62.94,40.57,4.07V378.1l-14.27-2.75-25-4.82h0l-1.33-.26Z"/><path class="cls-36" d="M193.11,384.93l53.36,10.3a1.62,1.62,0,0,0,1.92-1.59V318.89a1.62,1.62,0,0,0-1.46-1.61l-53.36-5.35a1.62,1.62,0,0,0-1.78,1.61v69.8A1.62,1.62,0,0,0,193.11,384.93ZM196,346.15V317l48.23,4.84v68l-43-8.3-5.23-1Z"/><polygon class="cls-36" points="159.56 353.68 173.35 370.56 183.19 359.95 183.19 315.76 142.62 311.69 142.62 370.27 143.95 370.53 159.56 353.68"/><polygon class="cls-37" points="159.56 353.68 173.35 370.56 183.19 359.95 183.19 315.76 142.62 311.69 142.62 370.27 143.95 370.53 159.56 353.68"/><polygon class="cls-36" points="214.77 366.95 236.21 343.82 244.21 353.62 244.21 321.88 195.98 317.04 195.98 346.15 196.94 345.11 214.77 366.95"/><polygon class="cls-38" points="214.77 366.95 236.21 343.82 244.21 353.62 244.21 321.88 195.98 317.04 195.98 346.15 196.94 345.11 214.77 366.95"/><polygon class="cls-39" points="143.95 370.53 143.95 370.53 168.92 375.35 168.92 375.35 143.95 370.53"/><polygon class="cls-39" points="173.35 370.56 159.56 353.68 143.95 370.53 168.92 375.35 173.35 370.56"/><polygon class="cls-40" points="201.21 381.58 195.98 380.57 201.21 381.58 201.21 381.58"/><polygon class="cls-40" points="214.77 366.95 196.94 345.11 195.98 346.15 195.98 380.57 201.21 381.58 214.77 366.95"/><polygon class="cls-40" points="168.92 375.35 183.19 378.1 168.92 375.35 168.92 375.35"/><polygon class="cls-40" points="168.92 375.35 183.19 378.1 183.19 359.95 173.35 370.56 168.92 375.35"/><polygon class="cls-41" points="201.21 381.58 244.21 389.88 201.21 381.58 201.21 381.58"/><polygon class="cls-41" points="214.77 366.95 201.21 381.58 244.21 389.88 244.21 353.62 236.21 343.82 214.77 366.95"/><path class="cls-42" d="M254,378.38a3.41,3.41,0,0,0,2.42-1.55,3.75,3.75,0,0,0,.25-1.89,8.23,8.23,0,0,0-.4-2.35l2.23-1.44a.5.5,0,0,0,.23-.52.49.49,0,0,0-.67-.35l-2.39,1a.81.81,0,0,0-.41.4L254.17,374l-1.45,3.2Z"/><path class="cls-42" d="M257.61,371.32l1.26-.46a.52.52,0,0,1,.63.22h0a.52.52,0,0,1-.15.7l-2.65,1.83-.65,2-.87-1.24.73-2Z"/><path class="cls-42" d="M260.2,372.2a.5.5,0,0,1-.23.63l-1.9.72-2,1.89-.54-.86,2-2,2.07-.65A.5.5,0,0,1,260.2,372.2Z"/><path class="cls-5" d="M259.86,374.11a.37.37,0,0,1-.32.38l-1.67.21-1.35.83-.36-.75,1.75-1.1,1.61.08A.37.37,0,0,1,259.86,374.11Z"/><path class="cls-43" d="M228.11,398.45c3.9-1.45,8.06-2.83,12.47-4.08q2.34-.66,4.61-1.23c.83-1.87,1.53-3.38,2-4.4,1.38-3,2.13-4.39,3.86-8,.75-1.58,1.35-2.86,1.73-3.68l2.22,1.08a49,49,0,0,1-6.78,18.61,48.28,48.28,0,0,1-9.8,5.56,11.21,11.21,0,0,1-3.35.75,7,7,0,0,1-4.33-.75A5.81,5.81,0,0,1,228.11,398.45Z"/><path class="cls-36" d="M264.72,325.58l-12.87,72.8a2.42,2.42,0,0,0,1.92,2.8L313,412.81a2.42,2.42,0,0,0,2.85-2l13.86-78.39a2.42,2.42,0,0,0-2.15-2.83l-60.2-6A2.42,2.42,0,0,0,264.72,325.58Zm47.5,82.08-2-.4h0l-53.86-10.58,3.88-22,8.16-46.16,56.83,5.7Z"/><path class="cls-36" d="M260.21,374.72l11,16.89,18.12-16.19,20.81,31.84,2,.4,13-73.39-56.83-5.7Zm37.24-31c3.4,0,5.59,3.14,4.91,7s-4,7-7.39,7-5.59-3.14-4.91-7S294.05,343.69,297.45,343.69Z"/><path class="cls-44" d="M260.21,374.72l11,16.89,18.12-16.19,20.81,31.84,2,.4,13-73.39-56.83-5.7Zm37.24-31c3.4,0,5.59,3.14,4.91,7s-4,7-7.39,7-5.59-3.14-4.91-7S294.05,343.69,297.45,343.69Z"/><polygon class="cls-41" points="310.18 407.25 310.18 407.25 256.33 396.68 310.18 407.25"/><polygon class="cls-41" points="271.25 391.61 260.21 374.72 256.33 396.68 310.18 407.25 289.37 375.41 271.25 391.61"/><path class="cls-36" d="M295,357.71c3.4,0,6.7-3.14,7.39-7s-1.51-7-4.91-7-6.7,3.14-7.39,7S291.57,357.71,295,357.71Z"/><path class="cls-45" d="M295,357.71c3.4,0,6.7-3.14,7.39-7s-1.51-7-4.91-7-6.7,3.14-7.39,7S291.57,357.71,295,357.71Z"/><path class="cls-46" d="M295,357.71c3.4,0,6.7-3.14,7.39-7s-1.51-7-4.91-7-6.7,3.14-7.39,7S291.57,357.71,295,357.71Z"/><ellipse class="cls-47" cx="81.43" cy="427.18" rx="81.43" ry="6.81"/><line class="cls-48" x1="125.97" y1="424.17" x2="87.56" y2="322.93"/><line class="cls-48" x1="159.36" y1="424.17" x2="120.95" y2="322.93"/><line class="cls-48" x1="125.88" y1="335.92" x2="92.49" y2="335.92"/><line class="cls-48" x1="131.42" y1="350.53" x2="98.03" y2="350.53"/><line class="cls-48" x1="136.96" y1="365.14" x2="103.57" y2="365.14"/><line class="cls-48" x1="142.51" y1="379.74" x2="109.12" y2="379.74"/><line class="cls-48" x1="148.05" y1="394.35" x2="114.66" y2="394.35"/><line class="cls-48" x1="153.59" y1="408.96" x2="120.2" y2="408.96"/><line class="cls-49" x1="71.04" y1="424.17" x2="109.45" y2="322.93"/><line class="cls-49" x1="37.65" y1="424.17" x2="76.06" y2="322.93"/><rect class="cls-50" x="70.04" y="316.47" width="57.55" height="7.86" rx="3.93" ry="3.93"/><rect class="cls-51" x="110.08" y="316.47" width="17.51" height="7.86" rx="3.93" ry="3.93"/><line class="cls-49" x1="71.13" y1="335.92" x2="104.52" y2="335.92"/><line class="cls-49" x1="65.59" y1="350.53" x2="98.98" y2="350.53"/><line class="cls-49" x1="60.04" y1="365.14" x2="93.44" y2="365.14"/><line class="cls-49" x1="54.5" y1="379.74" x2="87.89" y2="379.74"/><line class="cls-49" x1="48.96" y1="394.35" x2="82.35" y2="394.35"/><line class="cls-49" x1="43.42" y1="408.96" x2="76.81" y2="408.96"/><path class="cls-52" d="M116.9,231l15.3,3,17.73,1.58,0,2.67A147.52,147.52,0,0,1,114.37,237Z"/><path id="_Path_" data-name="&lt;Path&gt;" class="cls-51" d="M196.37,273.28l1.14.85,4.19-5.6-1.54-1.15a14,14,0,0,1-5.23-8l-.09-.39a14,14,0,0,0-5.23-8L88.75,175.6a10.7,10.7,0,0,0-15,2.16h0a10.7,10.7,0,0,0,2.16,15l100.44,75.15a14,14,0,0,0,10,2.7h0A14,14,0,0,1,196.37,273.28Z"/><path class="cls-53" d="M138.58,239.61c-1.8-5.48-3.77-12.93-5.29-18.64-1.57-5.94-2.94-11-4.18-15.17l-7.84-5.87c2.26,6.3,4.8,15.86,6.55,22.49,1.16,4.37,2.18,8.18,3.11,11.47Z"/><path class="cls-53" d="M92.21,178.18c9.15,29.73,14.11,35.59,18.91,34.89,4.3-.63,5.43-6.39,6.63-12.48.16-.83.36-1.85.59-2.86L113.42,194c-.46,1.64-.83,3.5-1.22,5.45-.43,2.2-1.19,6.05-2,7.61-1.27-1.21-4.45-5.81-10.18-23.07Z"/><path class="cls-53" d="M143.25,216.37c-.5,13.37-1.28,20.95-2,25.23l5,3.74c1.08-4.57,1.94-12.19,2.51-24.85Z"/><path class="cls-53" d="M204.2,276l.83-3a1,1,0,0,0-.38-1.12l-3.49-2.61-3,4,4.4,3.29A1,1,0,0,0,204.2,276Z"/><path class="cls-54" d="M84.48,307.92a8.93,8.93,0,0,0-4.08,2.77c.13.36.28.73.45,1.1a15,15,0,0,0,3.39,4.66l4.44,0a1.1,1.1,0,0,0,0-.36c-.19-1.14-2.2-1.57-2.32-1.59a5.64,5.64,0,0,1,0-4.8Z"/><circle class="cls-39" cx="101.82" cy="236.96" r="8.78"/><path class="cls-55" d="M104.43,249.76c3-2.48,9.82-1.32,11.89,2.21,2.16,3.68-1,9.8-4.68,17-1,2-2.6,4.88-9.68,16.18-3.93,6.27-4.74,7.43-7.22,11.47-3.56,5.79-6.31,10.56-8.05,13.64l-3.82-1.79c1.85-4.33,3.21-7.9,4.1-10.33,1.88-5.14,2.65-7.91,4.67-12.3,1.33-2.89,2.59-5.16,3.42-6.59q1.19-3.51,2.35-7.13,2.25-7,4.19-13.83a11.46,11.46,0,0,1,.55-4.62A8.93,8.93,0,0,1,104.43,249.76Z"/><path class="cls-54" d="M111.77,311c-.17.62-.33,1.28-.47,2a24.64,24.64,0,0,0-.36,2.67.72.72,0,0,0,.72.78l9.18,0a1.65,1.65,0,0,0-.3-1.22c-.37-.43-.92-.4-1.57-.51a7.05,7.05,0,0,1-3.41-1.79,5.54,5.54,0,0,1-1.28-2Z"/><path class="cls-52" d="M110,246a7.84,7.84,0,0,1,6,.88c2.25,1.54,3.3,4.56,3.15,15.87-.08,5.63-.43,11.73-1.41,20.88-.74,6.88-1.09,8.49-1.64,14.61-.51,5.68-.76,10.34-.89,13.43l-4.57.26c-1-5.68-1.66-10.48-2.09-14.17a35.81,35.81,0,0,1-.31-8.92,45.18,45.18,0,0,1,1.49-7c.22-.72.44-1.39.65-2-.28-1.53-.74-3.91-1.4-6.81-.81-3.61-1.53-6.79-2.69-10.78-2-6.71-2.75-7.41-2.27-9.61A8.86,8.86,0,0,1,110,246Z"/><path class="cls-39" d="M119.67,221.83a7.25,7.25,0,0,1,.17,5,6.21,6.21,0,0,1-2.61,3.31,4.5,4.5,0,0,1-1.68.56,3.25,3.25,0,0,1-1.62-.12c-1.81-1,.24-8.69,2.85-10.62a1.6,1.6,0,0,1,1.22-.41C118.93,219.69,119.39,221,119.67,221.83Z"/><path class="cls-56" d="M101.82,254.34a15.27,15.27,0,0,0,19.28-.28,13,13,0,0,1-1.42-2.89,13.89,13.89,0,0,1-.18-8.46c.6-1.89,1.19-2.1,1.22-3.56,0-.66-.11-1-1-4.13-.64-2.32-.66-2.47-.88-2.77s-1.21-1.52-4.92-1.7a19.71,19.71,0,0,0-10,2.38,63,63,0,0,0,1,6.63c.71,3.51,1.34,5,.65,7.08a25.38,25.38,0,0,1-1.72,3.17A40.31,40.31,0,0,0,101.82,254.34Z"/><path id="_Path_2" data-name="&lt;Path&gt;" class="cls-57" d="M119.48,224.73a1.49,1.49,0,0,1-.36.32,4.18,4.18,0,0,1-.46.31c0,.31,0,.64,0,1a15.58,15.58,0,0,1-.22,1.81,12.63,12.63,0,0,1-1.88.34,9.78,9.78,0,0,1-3.43-.14,6.23,6.23,0,0,1-2.19-.87,5.05,5.05,0,0,1,4.7-8.89,4.27,4.27,0,0,1,2.21,2c.25.57.12.64.52,1.61a10,10,0,0,0,.42.91C119.24,224.05,119.63,224.42,119.48,224.73Z"/><path class="cls-57" d="M110.6,225.87a5.47,5.47,0,0,1,.21,5.11q1.28.85,2.6,1.77,1.89,1.33,3.61,2.65l-1.52-3.89a12.89,12.89,0,0,1,.31-3Z"/><path class="cls-39" d="M116.14,223.25c-.51.63-.78.32-1.27.88-1,1.17,0,2.67-1,3.75-.46.52-.92.16-1.3.66-.55.74.33,1.57,0,2.85a3.06,3.06,0,0,1-2,2.09c-1.11.31-1.61-.49-2.44-.18-1.19.45-.68,2.39-1.85,3.55-1.54,1.53-5.12,1.66-7.46-.24s-2.46-5-2-6.94a7.57,7.57,0,0,1,3.41-4.46c1.59-.93,2.55-.58,4.08-1.85a7.44,7.44,0,0,0,2-2.48,9.69,9.69,0,0,1,3.22-3.37,7.19,7.19,0,0,1,4.56-.67c1,.14,2.91.39,3.56,1.7a2.17,2.17,0,0,1,.11,1.78c-.12.24-.24.27-.47.52C116.55,221.7,116.8,222.44,116.14,223.25Z"/><path class="cls-56" d="M110.6,235.48l-3.48-15.21L105,202.6l-2.66.12a147.52,147.52,0,0,0,2.25,35.47Z"/><ellipse class="cls-58" cx="212.07" cy="460.87" rx="43.15" ry="5.46"/><circle class="cls-39" cx="225.46" cy="392.92" r="5.22" transform="translate(-139.53 124.6) rotate(-23.83)"/><path class="cls-59" d="M201.44,458.25c6.61.63,16.45,1.26,23.06,1.89A6.24,6.24,0,0,0,229,458a6.33,6.33,0,0,0,1.16-3.65,12.22,12.22,0,0,0-.87-4.87c-.09-.26-.17-.47-.23-.61-2.45-6.13-3.61-8.3-4.86-11.56-2-5.22-1.25-5-2.58-7.7a23.38,23.38,0,0,0-8.92-9.4A22,22,0,0,0,210.5,424a15.09,15.09,0,0,0-1.43,4.82,13.54,13.54,0,0,0,.57,5,35.25,35.25,0,0,0,4.64,10,50.89,50.89,0,0,0,5,6.57c-2.51-.6-5.16-1.16-8-1.65-2.12-.38-7.42-.69-9.4-.94Z"/><path class="cls-60" d="M213.19,419.5a19.38,19.38,0,0,0-2.58,4.09c-1.1,2.36-2.48,5.33-1.57,8.78.15.58.79,4,3.92,5.55a25.87,25.87,0,0,0,2.78,1.25,26.78,26.78,0,0,0,4.28,1.1c4.82.8,12-.11,12.49-.17-1.51,1.3-3.09,2.77-4.69,4.44a69.79,69.79,0,0,0-5.47,6.41L232,456.9c2.26-2.4,4.61-5.1,7-8.11a121,121,0,0,0,7.12-10.07,5.91,5.91,0,0,0,0-3.58,6.46,6.46,0,0,0-4.17-3.83l-10.65-2.84-7.9-2.07c-1.89-1.06-3.9-2.3-6-3.74C215.87,421.61,214.47,420.54,213.19,419.5Z"/><path class="cls-61" d="M230.56,417.73a46.77,46.77,0,0,0-3.5,3.77,23.34,23.34,0,0,0-3.07,5.07,35.31,35.31,0,0,1-11.61-6c1.26-2.2,2.18-4.08,2.8-5.46,1.26-2.79,1.57-4,2.72-6.26a33.2,33.2,0,0,1,3.16-5,28,28,0,0,1,4.16-4.93l1.2-.92,5.33,4.94a3.53,3.53,0,0,1,1,1.63,27.52,27.52,0,0,0,.83,5.05c.54,2.08.92,2.55.75,3.58C234.1,414.55,233.29,415,230.56,417.73Z"/><path class="cls-57" d="M231.55,404.39a3.83,3.83,0,0,0-.48-1.8,8.14,8.14,0,0,1,.8-3.73,7.79,7.79,0,0,1,.76-1.24L229,395.29,226.42,398l1.28,1.52a20.11,20.11,0,0,1,2.11,3.19,3.92,3.92,0,0,0,.42.61A4,4,0,0,0,231.55,404.39Z"/><path class="cls-39" d="M241,462.64a5.18,5.18,0,0,0-2.78-2.25c-1.91-.72-3,.15-5.36-.75-.66-.25-2.24-.85-2.33-1.9a1.8,1.8,0,0,1,.64-1.33l-4.71-2.91a10.86,10.86,0,0,0-1.88,4.31,20.47,20.47,0,0,0-.41,5.7Z"/><path class="cls-39" d="M201.8,450.48a9.26,9.26,0,0,0-5.53-.2l1,10.05a1.89,1.89,0,0,0,.58,1.42,1.83,1.83,0,0,0,1.14.47l4.64-.43a3.47,3.47,0,0,0-.64-.86c-1.06-1-2.19-.76-2.69-1.67a2.08,2.08,0,0,1-.18-1.23,2.74,2.74,0,0,1,.49-1.21,4,4,0,0,1,.94-1Z"/><path class="cls-42" d="M229,395.5l4.43,2.8a2.76,2.76,0,0,0,2,.37h0a2.76,2.76,0,0,0,1.56-.95l1.66-2,.63.46a.36.36,0,0,0,.57-.3l-.07-2,.36-1.07a10.2,10.2,0,0,0,.48-4.27h0a6.54,6.54,0,0,0-2.78-4.72h0a6.54,6.54,0,0,0-5.88-.81l-.39.14a3.46,3.46,0,0,0-1.18.69h0a6.54,6.54,0,0,0-1.92,6.67l.41,1.41Z"/><path class="cls-42" d="M262.86,402.78a3.83,3.83,0,0,0,3.15.7,4.21,4.21,0,0,0,1.7-1.29,9.24,9.24,0,0,0,1.56-2.18l2.9.64a.56.56,0,0,0,.59-.23.55.55,0,0,0-.25-.81l-2.71-1.09a.91.91,0,0,0-.65,0l-2.61.92-3.7,1.38Z"/><path class="cls-42" d="M271.37,400.09l1.37.64a.59.59,0,0,1,.32.67h0a.59.59,0,0,1-.68.44l-3.55-.66-2.08,1,.29-1.68,2.17-1Z"/><path class="cls-42" d="M272.72,402.85a.56.56,0,0,1-.68.31l-2.08-.94-3.12-.13.26-1.11h3.22l2.15,1.14A.56.56,0,0,1,272.72,402.85Z"/><path class="cls-42" d="M270.92,404.08a.41.41,0,0,1-.56,0L268.87,403l-1.73-.42.31-.88,2.26.52,1.21,1.34A.41.41,0,0,1,270.92,404.08Z"/><path class="cls-62" d="M226.41,398.07c4.24,2,8.63,4.17,13.13,6.7q2.38,1.34,4.63,2.69c2.14-.82,3.9-1.46,5.09-1.89,3.45-1.24,5.18-1.77,9.44-3.27,1.85-.65,3.35-1.19,4.3-1.53l.9,2.62a55,55,0,0,1-20.19,9.34c-1-.16-2.91-.51-5.16-1.07a41,41,0,0,1-7-2.33,35.09,35.09,0,0,1-7.86-4.84Z"/><path class="cls-39" d="M227.6,386.86c-.26,1.7.64,2.58,1,6a22,22,0,0,1,.08,2.77,10.05,10.05,0,0,0,2.61-2.42,6.44,6.44,0,0,0,1.09-1.84c.54-1.52.16-2.68.91-3.12a.79.79,0,0,1,.64-.11c.74.3,0,2.24.84,3s2.76,0,3.75-.38c1.14-.46,2.28-.92,2.66-2a3.59,3.59,0,0,0-.65-2.93c-1.5-2.47-5.45-5.08-9.1-3.52A6.34,6.34,0,0,0,227.6,386.86Z"/><polygon class="cls-63" points="263.12 96.83 342.12 100.93 273.57 31.1 263.12 96.83"/></g></g></g></svg>